# xmcd
#
# Track frame offsets:
#	150
#	14787
#	26567
#	41262
#	53335
#	66330
#	79755
#	91307
#	103060
#	115965
#	133072
#	143507
#
# Disc length: 2086 seconds
#
# Revision: 0
# Processed by: cddbd v1.4PL0 Copyright (c) Steve Scherf et al.
# Submitted via: audiograbber 1.81.01
#
DISCID=9b08240c
DTITLE=Castellina Pasi - I Grandi Successi Originali cd2
DYEAR=1900
DGENRE=pop
TTITLE0=Danubio (Valzer Viennese)
TTITLE1=El picador (Paso doble)
TTITLE2=Frenesia (Tango Argentino)
TTITLE3=Gli amici della notte (Ritmo allegro)
TTITLE4=Il mio bandoneon (Tango allegro)
TTITLE5=La frittata (Samba umoristica a duetto)
TTITLE6=La bomba (Polka)
TTITLE7=Luci di Vienna (Valzer per Orchestra)
TTITLE8=Profumo di campagna (Ritmo allegro)
TTITLE9=Parigino (Valzer)
TTITLE10=Tutto pepe (Polka)
TTITLE11=Una marcia in più (Ritmo allegro)
EXTD=
EXTT0=
EXTT1=
EXTT2=
EXTT3=
EXTT4=
EXTT5=
EXTT6=
EXTT7=
EXTT8=
EXTT9=
EXTT10=
EXTT11=
PLAYORDER=
